<svg width="107" height="48" viewBox="0 0 107 48" fill="none" xmlns="http://www.w3.org/2000/svg">
<g clip-path="url(#clip0_213_5066)">
<mask id="mask0_213_5066" style="mask-type:luminance" maskUnits="userSpaceOnUse" x="0" y="0" width="107" height="48">
<path d="M107 0H0V48H107V0Z" fill="white"/>
</mask>
<g mask="url(#mask0_213_5066)">
<path d="M102.208 29.2861H94.5589L90.7363 36.4072L94.5589 43.5283H102.208L106.034 36.4072L102.208 29.2861Z" stroke="#14D8B5" stroke-width="1.67219" stroke-miterlimit="10"/>
<path d="M98.3847 40.8716C100.679 40.8716 102.538 38.8727 102.538 36.407C102.538 33.9413 100.679 31.9424 98.3847 31.9424C96.0906 31.9424 94.231 33.9413 94.231 36.407C94.231 38.8727 96.0906 40.8716 98.3847 40.8716Z" stroke="#14D8B5" stroke-width="1.67219" stroke-miterlimit="10"/>
<path d="M21.8252 18.0592C20.7763 18.4821 19.6609 18.6823 18.541 18.6487C14.7318 18.6487 12.3071 16.1324 12.3071 12.1782C12.3071 8.47571 14.6649 5.44538 19.0461 5.44538C19.9978 5.44134 20.9433 5.61153 21.842 5.94864L21.2734 8.87113C20.6228 8.58366 19.9231 8.44648 19.22 8.46852C17.2836 8.46852 16.0395 9.94594 16.0562 12.0201C16.0562 14.3458 17.5076 15.5824 19.2802 15.5824C20.0031 15.595 20.7213 15.4545 21.3938 15.169L21.8252 18.0592Z" fill="#14D8B5"/>
<path d="M23.832 0H27.5108V7.23254H27.561C27.94 6.6852 28.4308 6.23876 28.9957 5.92766C29.5832 5.59443 30.2378 5.42159 30.902 5.4244C33.2431 5.4244 35.0323 7.16423 35.0323 10.9854V18.3761H31.3535V11.4168C31.3535 9.74882 30.8184 8.6093 29.4606 8.6093C29.0572 8.60541 28.6628 8.73753 28.3329 8.98706C28.0029 9.2366 27.754 9.591 27.6212 10.0005C27.5322 10.2777 27.4914 10.5701 27.5008 10.8632V18.3761H23.832V0Z" fill="#14D8B5"/>
<path d="M47.6775 9.75632C47.6775 8.17824 47.6307 6.84461 47.5806 5.70869H50.6775L50.8346 7.42336H50.9216C51.304 6.78953 51.8322 6.27254 52.455 5.9224C53.0778 5.57226 53.7742 5.40083 54.4767 5.4247C56.0084 5.4247 57.1956 6.26586 57.704 7.58152H57.7542C58.1543 6.9542 58.6756 6.42699 59.2825 6.03581C59.9598 5.60791 60.7345 5.39132 61.5199 5.41033C63.7707 5.41033 65.4897 7.1214 65.4897 10.9066V18.362H61.9146V11.4961C61.9146 9.66285 61.3627 8.59523 60.1788 8.59523C59.801 8.60542 59.4359 8.74371 59.1355 8.99033C58.8352 9.23694 58.6151 9.57927 58.5066 9.9684C58.4159 10.2924 58.3708 10.6293 58.3729 10.9677V18.3764H54.7944V11.2768C54.7944 9.68083 54.266 8.59523 53.0988 8.59523C52.7113 8.61187 52.3381 8.75692 52.0304 9.01048C51.7226 9.26404 51.4954 9.61371 51.3798 10.0115C51.2804 10.3323 51.234 10.6693 51.2427 11.0072V18.3764H47.6775V9.75632Z" fill="#14D8B5"/>
<path d="M72.1582 2.19246C72.1582 3.27087 71.4091 4.15876 70.1884 4.15876C69.9406 4.17521 69.6923 4.13626 69.4592 4.04437C69.2261 3.95247 69.0133 3.80963 68.8342 3.62485C68.655 3.44008 68.5135 3.21739 68.4185 2.97084C68.3234 2.7243 68.277 2.45926 68.2821 2.19246C68.2821 1.06372 69.048 0.218963 70.2219 0.218963C70.4723 0.199419 70.7238 0.236234 70.9603 0.327051C71.1968 0.417869 71.413 0.560694 71.5952 0.746407C71.7775 0.932121 71.9216 1.15664 72.0186 1.40563C72.1155 1.65462 72.1631 1.9226 72.1582 2.19246ZM68.3858 18.3686V5.70807H72.0646V18.3758L68.3858 18.3686Z" fill="#14D8B5"/>
<path d="M83.8268 18.0592C82.779 18.4822 81.6647 18.6824 80.5459 18.6487C76.7367 18.6487 74.312 16.1324 74.312 12.1782C74.312 8.47571 76.6531 5.44538 81.0476 5.44538C82.0005 5.44135 82.947 5.61153 83.8468 5.94864L83.2749 8.87113C82.6256 8.58301 81.927 8.4458 81.2248 8.46852C79.2884 8.46852 78.0443 9.94594 78.0577 12.0201C78.0577 14.3458 79.5125 15.5824 81.285 15.5824C82.0069 15.5953 82.7241 15.4549 83.3953 15.169L83.8268 18.0592Z" fill="#14D8B5"/>
<path d="M92.6461 18.3766L92.4287 17.1184H92.3518C91.5826 18.1285 90.382 18.6641 88.9874 18.6641C86.5861 18.6641 85.1748 16.8093 85.1748 14.7855C85.1748 11.4855 87.9239 9.92184 92.0943 9.92903V9.76726C92.0943 9.09146 91.7599 8.13168 89.9338 8.13527C88.7947 8.15194 87.6778 8.4771 86.6865 9.08067L86.0176 6.56439C87.4324 5.77984 89.0078 5.38928 90.5994 5.42847C94.5223 5.42847 95.7631 7.91959 95.7631 10.896V15.2959C95.7459 16.3218 95.8086 17.3475 95.9504 18.3622L92.6461 18.3766ZM92.2013 12.3878C90.275 12.3878 88.7834 12.8731 88.7834 14.3829C88.7834 15.4038 89.4054 15.8998 90.2382 15.8998C90.6559 15.8995 91.0632 15.7591 91.4031 15.4981C91.743 15.2371 91.9987 14.8686 92.1345 14.444C92.1856 14.2243 92.2082 13.9981 92.2013 13.7718V12.3878Z" fill="#14D8B5"/>
<path d="M98.6523 0H102.331V18.3761H98.6523V0Z" fill="#14D8B5"/>
<path d="M0 40.4582C0.0501657 39.6206 0.0969847 38.1109 0.0969847 36.673V22.0713H3.7758V29.2895H3.82262C4.5216 28.2111 5.74564 27.4921 7.38104 27.4921C10.2104 27.4921 12.2705 30.0084 12.2438 33.8907C12.2438 38.4524 9.55154 40.7206 6.85263 40.7206C5.47474 40.7206 4.14703 40.1742 3.32765 38.6716H3.27749L3.09689 40.4582H0ZM3.76577 35.0662C3.76318 35.2992 3.78449 35.5319 3.82931 35.7599C3.94113 36.287 4.21469 36.7584 4.60597 37.0981C4.99725 37.4378 5.48349 37.6261 5.98643 37.6328C7.54157 37.6328 8.51144 36.3315 8.51144 34.0381C8.51144 32.0682 7.69207 30.5153 5.99312 30.5153C5.4823 30.5275 4.9906 30.7264 4.59907 31.0793C4.20755 31.4322 3.93958 31.9179 3.83934 32.4564C3.79086 32.6925 3.76619 32.9336 3.76577 33.1753V35.0662Z" fill="#2C2C2C"/>
<path d="M21.2033 40.4581L20.9859 39.1999H20.909C20.4912 39.7111 19.9721 40.1151 19.3898 40.382C18.8075 40.6489 18.1769 40.7719 17.5445 40.742C15.1433 40.742 13.7319 38.8908 13.7319 36.867C13.7319 33.567 16.481 32.0033 20.6515 32.0069V31.8308C20.6515 31.1586 20.317 30.1952 18.491 30.1988C17.3515 30.2166 16.2346 30.543 15.2436 31.1478L14.5747 28.6315C15.9901 27.8485 17.5651 27.4581 19.1565 27.4956C23.0795 27.4956 24.3202 29.9903 24.3202 32.9667V37.3846C24.2985 38.4127 24.3589 39.441 24.5008 40.4581H21.2033ZM20.7585 34.4657C18.8321 34.4657 17.3405 34.9546 17.3405 36.4644C17.3405 37.4852 17.9626 37.9813 18.7953 37.9813C19.2131 37.981 19.6203 37.8405 19.9602 37.5796C20.3001 37.3186 20.5558 36.9501 20.6916 36.5255C20.7428 36.3058 20.7653 36.0796 20.7585 35.8532V34.4657Z" fill="#2C2C2C"/>
<path d="M27.1966 37.0145C28.1612 37.5862 29.2364 37.9086 30.337 37.9563C31.4439 37.9563 31.9155 37.5573 31.9155 36.9103C31.9155 36.2632 31.5409 35.9361 30.1865 35.4472C27.735 34.5809 26.812 33.1466 26.8421 31.6584C26.8421 29.2787 28.7082 27.4922 31.6346 27.4922C32.7777 27.4735 33.9105 27.7264 34.9522 28.2327L34.3168 30.9431C33.5251 30.5031 32.6524 30.2575 31.7617 30.2241C30.8687 30.2241 30.3537 30.6052 30.3537 31.2414C30.3537 31.8777 30.8219 32.1689 32.2667 32.7045C34.5041 33.5205 35.4405 34.7571 35.4539 36.6047C35.4539 38.97 33.7382 40.7135 30.3604 40.7135C29.041 40.7415 27.7339 40.4362 26.5444 39.822L27.1966 37.0145Z" fill="#2C2C2C"/>
<path d="M44.6875 39.4878H38.5205V5.99609H45.2327" stroke="#2C2C2C" stroke-width="2.6755" stroke-miterlimit="10"/>
<path d="M45.2327 22.1436H38.5205" stroke="#2C2C2C" stroke-width="2.6755" stroke-miterlimit="10"/>
<path d="M0 46.7422H104.244" stroke="#14D8B5" stroke-width="2.34106" stroke-miterlimit="10"/>
</g>
</g>
<defs>
<clipPath id="clip0_213_5066">
<rect width="107" height="48" fill="white"/>
</clipPath>
</defs>
</svg>
