<svg width="295" height="295" viewBox="0 0 295 295" fill="none" xmlns="http://www.w3.org/2000/svg">
<path d="M245.394 72.8591V167.328C245.392 170.452 244.567 173.519 243.001 176.223C241.436 178.926 239.186 181.17 236.477 182.728L154.537 230.099C151.83 231.656 148.762 232.476 145.639 232.476C142.515 232.476 139.447 231.656 136.74 230.099L54.9176 182.884C52.2088 181.326 49.9585 179.082 48.3931 176.379C46.8276 173.676 46.0022 170.608 46 167.485V73.0155C46.0022 69.8921 46.8276 66.8244 48.3931 64.1211C49.9585 61.4177 52.2088 59.1741 54.9176 57.6158L136.74 10.4008C139.442 8.8284 142.512 8 145.639 8C148.765 8 151.835 8.8284 154.537 10.4008L236.399 57.6158C239.099 59.1509 241.35 61.3657 242.929 64.04C244.507 66.7142 245.357 69.7547 245.394 72.8591Z" stroke="#CDCDCD" stroke-width="8.5741" stroke-miterlimit="10"/>
<path d="M145.738 233.852V269.654" stroke="#CDCDCD" stroke-width="2.85803" stroke-miterlimit="10"/>
<path d="M154.813 278.722C154.805 276.93 154.266 275.18 153.265 273.694C152.263 272.208 150.843 271.052 149.184 270.372C147.526 269.692 145.702 269.518 143.945 269.872C142.187 270.226 140.574 271.093 139.309 272.363C138.044 273.632 137.183 275.248 136.836 277.006C136.489 278.764 136.671 280.585 137.359 282.24C138.047 283.894 139.21 285.308 140.702 286.303C142.193 287.298 143.946 287.828 145.739 287.828C146.934 287.828 148.117 287.593 149.22 287.134C150.324 286.676 151.326 286.005 152.169 285.159C153.012 284.312 153.68 283.308 154.133 282.204C154.587 281.099 154.818 279.916 154.813 278.722Z" stroke="#14D8B5" stroke-width="2.85803" stroke-miterlimit="10"/>
<path d="M145.069 183H145.16M110.559 80.4646C115.489 66.2283 129.078 56 145.069 56C165.221 56 181.559 72.2457 181.559 92.2857C181.559 107.313 172.373 120.206 159.281 125.716C152.524 128.561 149.145 129.983 147.962 131.081C146.555 132.39 146.287 132.791 145.625 134.589C145.069 136.1 145.069 138.428 145.069 143.086V155.786" stroke="#14D8B5" stroke-width="8.87" stroke-linecap="round" stroke-linejoin="round"/>
<path d="M245 176L275.782 194.331" stroke="#CDCDCD" stroke-width="2.85803" stroke-miterlimit="10"/>
<path d="M288.261 191.164C286.186 189.93 283.706 189.571 281.366 190.164C279.027 190.758 277.019 192.256 275.784 194.33C274.55 196.403 274.19 198.881 274.784 201.219C275.378 203.558 276.878 205.564 278.952 206.798C279.979 207.409 281.117 207.811 282.3 207.983C283.483 208.154 284.688 208.091 285.847 207.797C287.005 207.503 288.095 206.984 289.052 206.269C290.01 205.555 290.818 204.658 291.429 203.632C292.04 202.605 292.443 201.469 292.615 200.286C292.786 199.104 292.723 197.9 292.429 196.742C292.135 195.584 291.615 194.496 290.9 193.539C290.185 192.581 289.288 191.774 288.261 191.164Z" stroke="#CDCDCD" stroke-width="2.85803" stroke-miterlimit="10"/>
</svg>
