<svg width="435" height="265" viewBox="0 0 435 265" fill="none" xmlns="http://www.w3.org/2000/svg">
<path d="M267.722 11H174.113C171.018 11.0022 167.978 11.8195 165.3 13.3697C162.621 14.9198 160.398 17.1481 158.854 19.8303L111.913 100.969C110.371 103.649 109.559 106.687 109.559 109.78C109.559 112.872 110.371 115.91 111.913 118.591L158.699 199.613C160.243 202.295 162.466 204.523 165.145 206.073C167.824 207.624 170.863 208.441 173.958 208.443H267.567C270.662 208.441 273.702 207.624 276.381 206.073C279.06 204.523 281.283 202.295 282.827 199.613L329.612 118.591C331.17 115.916 331.991 112.875 331.991 109.78C331.991 106.684 331.17 103.644 329.612 100.969L282.827 19.9078C281.306 17.2337 279.111 15.0045 276.461 13.4417C273.811 11.8789 270.799 11.0371 267.722 11Z" stroke="#CDCDCD" stroke-width="7.7459" stroke-miterlimit="10"/>
<path d="M332.133 109.684H367.609" stroke="#CDCDCD" stroke-width="3.87295" stroke-miterlimit="10"/>
<path d="M376.63 118.668C374.853 118.668 373.115 118.141 371.638 117.154C370.16 116.166 369.009 114.763 368.328 113.121C367.648 111.479 367.47 109.673 367.817 107.93C368.164 106.187 369.02 104.586 370.276 103.329C371.533 102.072 373.134 101.217 374.877 100.87C376.62 100.523 378.426 100.701 380.068 101.381C381.71 102.061 383.113 103.213 384.101 104.691C385.088 106.168 385.615 107.905 385.615 109.683C385.615 112.066 384.668 114.351 382.983 116.036C381.298 117.721 379.013 118.668 376.63 118.668Z" stroke="#CDCDCD" stroke-width="3.87295" stroke-miterlimit="10"/>
<path d="M431.542 161.49C433.452 156.91 431.287 151.648 426.707 149.738C422.127 147.828 416.866 149.992 414.956 154.572C413.046 159.152 415.21 164.413 419.79 166.324C424.37 168.234 429.631 166.07 431.542 161.49Z" stroke="#CDCDCD" stroke-width="3.87295" stroke-miterlimit="10"/>
<path d="M108.195 109.684H72.7188" stroke="#CDCDCD" stroke-width="3.87295" stroke-miterlimit="10"/>
<path d="M63.7348 100.697C65.5102 100.705 67.2436 101.239 68.7162 102.23C70.1887 103.222 71.3343 104.628 72.0084 106.271C72.6826 107.913 72.8549 109.719 72.5039 111.459C72.1528 113.2 71.294 114.797 70.0359 116.05C68.7778 117.303 67.1767 118.154 65.4348 118.498C63.6929 118.842 61.8883 118.661 60.2487 117.98C58.6091 117.299 57.208 116.147 56.2224 114.671C55.2368 113.194 54.7109 111.458 54.7109 109.683C54.7108 108.499 54.9445 107.328 55.3985 106.235C55.8525 105.143 56.5178 104.15 57.3563 103.315C58.1947 102.481 59.1898 101.819 60.2844 101.37C61.379 100.921 62.5516 100.692 63.7348 100.697Z" stroke="#14D8B5" stroke-width="3.87295" stroke-miterlimit="10"/>
<path d="M273.688 207.963L296.327 246.169" stroke="#CDCDCD" stroke-width="3.87295" stroke-miterlimit="10"/>
<path d="M292.549 257.835C291.326 255.78 290.97 253.325 291.559 251.008C292.147 248.691 293.631 246.702 295.686 245.48C297.74 244.258 300.196 243.902 302.513 244.49C304.83 245.078 306.818 246.563 308.041 248.617C308.646 249.634 309.045 250.761 309.215 251.932C309.384 253.104 309.322 254.297 309.031 255.444C308.739 256.591 308.225 257.67 307.517 258.619C306.809 259.567 305.921 260.367 304.903 260.972C303.886 261.577 302.76 261.976 301.588 262.146C300.417 262.316 299.224 262.253 298.076 261.962C296.929 261.671 295.85 261.156 294.902 260.448C293.954 259.74 293.154 258.852 292.549 257.835Z" stroke="#CDCDCD" stroke-width="3.87295" stroke-miterlimit="10"/>
<path d="M383.797 115.027L417.22 152.828" stroke="#CDCDCD" stroke-width="3.87295" stroke-miterlimit="10"/>
<path d="M261 106.5C261 98.2921 258.566 90.2684 254.006 83.4438C249.446 76.6192 242.965 71.3 235.382 68.1589C227.798 65.0179 219.454 64.1962 211.404 65.7975C203.353 67.3988 195.959 71.3514 190.155 77.1552C184.351 82.9591 180.399 90.3535 178.797 98.4037C177.196 106.454 178.018 114.798 181.159 122.381C184.3 129.965 189.619 136.446 196.444 141.006C203.269 145.566 211.292 148 219.5 148" stroke="#14D8B5" stroke-width="3.87" stroke-linecap="round" stroke-linejoin="round"/>
<path d="M178 107H261" stroke="#14D8B5" stroke-width="3.87" stroke-linecap="round" stroke-linejoin="round"/>
<path d="M219.5 148C211.504 148 205 129.408 205 106.5C205 83.592 211.504 65 219.5 65C227.496 65 234 83.592 234 106.5" stroke="#14D8B5" stroke-width="3.87" stroke-linecap="round" stroke-linejoin="round"/>
<path d="M245.5 147C253.508 147 260 140.508 260 132.5C260 124.492 253.508 118 245.5 118C237.492 118 231 124.492 231 132.5C231 140.508 237.492 147 245.5 147Z" stroke="#14D8B5" stroke-width="3.87" stroke-linecap="round" stroke-linejoin="round"/>
<path d="M64.5 196C72.5081 196 79 189.508 79 181.5C79 173.492 72.5081 167 64.5 167C56.4919 167 50 173.492 50 181.5C50 189.508 56.4919 196 64.5 196Z" stroke="#14D8B5" stroke-width="3.87" stroke-linecap="round" stroke-linejoin="round"/>
<path d="M265 152L256 143" stroke="#14D8B5" stroke-width="3.87" stroke-linecap="round" stroke-linejoin="round"/>
<path d="M64.3633 166.637L64.3633 120" stroke="#14D8B5" stroke-width="3.87" stroke-linecap="round" stroke-linejoin="round"/>
</svg>
