<svg width="35" height="34" viewBox="0 0 35 34" fill="none" xmlns="http://www.w3.org/2000/svg">
<path d="M33.0371 7.42607V2.04688C33.0371 1.30361 32.4366 0.703125 31.6934 0.703125H3.30667C2.5634 0.703125 1.96292 1.30361 1.96292 2.04688V7.42607C1.26165 7.46807 0.703151 8.05176 0.703151 8.76562V14.296C0.700462 15.3124 0.906265 16.3185 1.30784 17.2522C1.48841 17.6806 1.71096 18.0837 1.96292 18.4658V32.9531C1.96292 33.6922 2.5634 34.2969 3.30667 34.2969H31.6934C32.4366 34.2969 33.0371 33.6964 33.0371 32.9531V18.4658C33.2931 18.0827 33.5124 17.6764 33.6922 17.2522C34.0911 16.3158 34.2969 15.3206 34.2969 14.296V8.76562C34.2969 8.05176 33.7384 7.46807 33.0371 7.42607ZM4.98635 3.72656H30.0137V7.42188H4.98635V3.72656ZM20.1875 31.2776H14.8125V26.9062H20.1875V31.2776ZM30.0137 31.2776H22.875V25.5625C22.875 24.8192 22.2745 24.2188 21.5313 24.2188H13.4688C12.7255 24.2188 12.125 24.8192 12.125 25.5625V31.2776H4.98635V21.1071C5.10813 21.1659 5.23411 21.2247 5.36428 21.2751C6.30071 21.6698 7.29592 21.8672 8.32053 21.8672C9.34514 21.8672 10.3362 21.6698 11.2768 21.2751C11.8563 21.0315 12.4022 20.7208 12.9019 20.3471C12.9103 20.3429 12.9187 20.3429 12.9271 20.3471C13.4283 20.7224 13.9742 21.0341 14.5522 21.2751C15.4886 21.6698 16.4838 21.8672 17.5084 21.8672C18.533 21.8672 19.524 21.6698 20.4647 21.2751C21.0442 21.0315 21.5901 20.7208 22.0898 20.3471C22.0982 20.3429 22.1066 20.3429 22.115 20.3471C22.6162 20.7224 23.1621 21.0341 23.7401 21.2751C24.6765 21.6698 25.6717 21.8672 26.6963 21.8672C27.7209 21.8672 28.7119 21.6698 29.6526 21.2751C29.7785 21.2205 29.9045 21.1659 30.0305 21.1071V31.2776H30.0137ZM31.2735 14.296C31.2735 16.8071 29.2158 18.8438 26.6837 18.8438C24.9704 18.8438 23.4755 17.9157 22.6861 16.5384C22.5643 16.3284 22.3459 16.1982 22.1024 16.1982H22.0772C21.8378 16.1982 21.6153 16.3284 21.4935 16.5384C21.0906 17.241 20.5089 17.8244 19.8075 18.2293C19.1061 18.6342 18.3099 18.8462 17.5 18.8438C15.7909 18.8438 14.3002 17.9199 13.5108 16.5468C13.3848 16.3326 13.158 16.1982 12.9103 16.1982C12.6625 16.1982 12.4316 16.3326 12.3098 16.5468C11.9046 17.2467 11.3221 17.8275 10.6211 18.2307C9.92 18.634 9.12508 18.8454 8.31633 18.8438C5.78421 18.8438 3.72659 16.8071 3.72659 14.296V10.4663C3.72659 10.4537 3.73499 10.4453 3.74758 10.4453H31.2525C31.2651 10.4453 31.2735 10.4537 31.2735 10.4663V14.296Z" fill="black"/>
</svg>
